<?xml version="1.0" encoding="utf-8"?>
<!-- Generator: Adobe Illustrator 27.3.1, SVG Export Plug-In . SVG Version: 6.00 Build 0)  -->
<svg version="1.1" id="Layer_1" xmlns="http://www.w3.org/2000/svg" xmlns:xlink="http://www.w3.org/1999/xlink" x="0px" y="0px"
	 viewBox="0 0 538 80" style="enable-background:new 0 0 538 80;" xml:space="preserve">
<style type="text/css">
	.st0{fill:#46B750;stroke:#000000;stroke-width:0.9796;stroke-miterlimit:10;}
	.st1{fill:#FFFFFF;}
</style>
<g>
	<g>
		<path class="st0" d="M10.19,36.17c0.32,0.24,0.28,0.63,0.37,1.1c0.26-0.66,0.54-1.16,0.53-1.74c-0.02-3.8,1.2-7.31,2.68-10.72
			c4.37-10.09,11.81-17.14,22.09-21.2c3.92-1.55,7.99-2.49,12.27-2.33c3.33,0.13,6.67-0.25,9.98,0.48
			c7.54,1.66,14.1,5.06,19.66,10.39c4.33,4.15,8.5,8.45,12.76,12.67c1.15,1.14,1.19,1.14,2.32,0.03c4.38-4.33,8.77-8.65,13.14-12.99
			c6.2-6.17,13.76-9.46,22.44-10.35c5.27-0.54,10.48-0.28,15.61,1.16c6.21,1.74,11.51,5.01,16.25,9.27
			c0.81,0.73,0.37,1.28-0.18,1.82c-2.22,2.2-4.44,4.38-6.66,6.58c-1.9,1.88-3.81,3.75-5.67,5.67c-0.68,0.7-1.15,0.76-1.91,0.06
			c-3.34-3.09-7.28-4.7-11.89-4.91c-6.07-0.27-10.99,1.97-15.2,6.17c-3.93,3.92-7.8,7.9-11.96,11.59c-0.87,0.77-0.79,1.28,0.01,2.04
			c4.38,4.21,8.65,8.54,13.1,12.68c4.32,4.02,9.48,5.72,15.46,5.17c4-0.37,7.3-2.1,10.35-4.48c0.96-0.75,1.58-0.73,2.46,0.17
			c3.89,3.95,7.85,7.85,11.82,11.72c0.71,0.69,0.77,1.25,0.16,1.96c-1.61,1.86-3.6,3.26-5.63,4.59c-3.8,2.5-7.89,4.32-12.38,5.22
			c-0.19,0.04-0.37,0.12-0.56,0.19c0.06,0.4,0.5,0.3,0.6,0.57c-6.19,0-12.39,0-18.58,0c0.36-0.15,0.72-0.29,1.11-0.45
			c-0.33-0.44-0.8-0.39-1.22-0.46c-0.48-0.08-0.98-0.07-1.44-0.2c-6.01-1.79-11.43-4.65-15.93-9.03
			c-4.56-4.43-9.08-8.89-13.58-13.38c-0.77-0.77-1.31-0.7-2.02,0.02c-4.18,4.17-8.41,8.31-12.59,12.48
			c-4.35,4.34-9.42,7.51-15.35,9.27c-1.43,0.42-2.87,0.81-4.44,1.25c0.4,0.21,0.67,0.35,0.94,0.5c-5.79,0-11.57,0-17.36,0
			c0.35-0.14,0.69-0.27,1.23-0.49c-0.6-0.13-0.99-0.23-1.38-0.31c-5.54-1-10.52-3.2-14.98-6.65c-8.26-6.4-13.51-14.57-15.22-24.87
			c-0.29-1.75-0.48-3.5-0.55-5.27c-0.01-0.29,0.1-1.11-0.64-0.39C10.19,39.24,10.19,37.71,10.19,36.17z M50.17,59.12
			c3.68,0.03,8.67-1.71,11.76-4.19c5.3-4.25,9.77-9.36,14.69-13.99c0.67-0.63,0.37-1.15-0.14-1.64c-4.52-4.36-8.8-8.96-13.52-13.12
			c-2.35-2.07-5.05-3.62-8.09-4.31c-4.16-0.95-8.26-0.67-12.32,0.95c-6.94,2.77-12.56,11.52-11.62,19.11
			C32.14,51.56,40.29,59.04,50.17,59.12z"/>
	</g>
	<g>
		<path class="st1" d="M242.68,18.86l-10.5,40.27h-11.87l-6.42-26.5l-6.65,26.5h-11.87l-10.21-40.27h10.5l5.79,29.31l7.17-29.31
			h10.78l6.88,29.31l5.85-29.31H242.68z"/>
		<path class="st1" d="M247.53,34.4c1.24-2.49,2.93-4.4,5.08-5.74c2.14-1.34,4.53-2.01,7.17-2.01c2.26,0,4.24,0.46,5.94,1.38
			c1.7,0.92,3.01,2.12,3.93,3.61v-4.53h9.81v32.01h-9.81v-4.53c-0.96,1.49-2.28,2.7-3.99,3.61c-1.7,0.92-3.68,1.38-5.94,1.38
			c-2.6,0-4.97-0.68-7.11-2.04c-2.14-1.36-3.83-3.29-5.08-5.79c-1.24-2.5-1.86-5.4-1.86-8.69C245.67,39.77,246.29,36.89,247.53,34.4
			z M267.61,37.33c-1.36-1.41-3.01-2.12-4.96-2.12s-3.6,0.7-4.96,2.09c-1.36,1.4-2.04,3.32-2.04,5.77c0,2.45,0.68,4.39,2.04,5.82
			c1.36,1.43,3.01,2.15,4.96,2.15s3.6-0.71,4.96-2.12c1.36-1.41,2.04-3.34,2.04-5.79S268.96,38.74,267.61,37.33z"/>
		<path class="st1" d="M292.13,58.15c-2.18-0.96-3.9-2.26-5.16-3.93c-1.26-1.66-1.97-3.53-2.12-5.59h9.69
			c0.11,1.19,0.62,2.13,1.52,2.84c0.9,0.71,2.04,1.06,3.41,1.06c1.22,0,2.17-0.25,2.84-0.75c0.67-0.5,1-1.17,1-2.01
			c0-0.92-0.48-1.6-1.43-2.06c-0.96-0.46-2.52-0.94-4.7-1.43c-2.29-0.54-4.2-1.09-5.71-1.66c-1.51-0.57-2.81-1.5-3.9-2.78
			c-1.09-1.28-1.64-2.99-1.64-5.13c0-1.87,0.51-3.57,1.52-5.08c1.01-1.51,2.49-2.71,4.44-3.61c1.95-0.9,4.28-1.35,7-1.35
			c4.01,0,7.18,1,9.49,2.98c2.31,1.99,3.64,4.63,3.99,7.91h-9.06c-0.15-1.18-0.64-2.11-1.46-2.78c-0.82-0.67-1.9-1-3.24-1
			c-1.15,0-2.03,0.23-2.64,0.69c-0.61,0.46-0.92,1.11-0.92,1.95c0,0.92,0.49,1.61,1.46,2.06c0.98,0.46,2.49,0.92,4.56,1.38
			c2.33,0.57,4.26,1.16,5.79,1.75c1.53,0.59,2.85,1.55,3.96,2.87c1.11,1.32,1.66,3.09,1.66,5.31c0,1.87-0.52,3.56-1.55,5.05
			c-1.03,1.49-2.53,2.66-4.5,3.5c-1.97,0.84-4.27,1.26-6.91,1.26C296.77,59.58,294.31,59.1,292.13,58.15z"/>
		<path class="st1" d="M336.41,50.8v8.32h-4.99c-3.56,0-6.33-0.87-8.32-2.61c-1.99-1.74-2.98-4.58-2.98-8.52V35.26h-3.9v-8.14h3.9
			v-7.8h9.81v7.8h6.42v8.14h-6.42v12.85c0,0.96,0.23,1.64,0.69,2.06c0.46,0.42,1.22,0.63,2.29,0.63L336.41,50.8L336.41,50.8z"/>
		<path class="st1" d="M371.86,45.36h-22.2c0.15,2.03,0.78,3.58,1.89,4.65c1.11,1.07,2.5,1.61,4.19,1.61c2.45,0,4.15-1.03,5.11-3.1
			h10.44c-0.54,2.1-1.5,4-2.9,5.68c-1.4,1.68-3.15,3-5.25,3.96c-2.1,0.96-4.46,1.43-7.06,1.43c-3.14,0-5.93-0.67-8.37-2.01
			c-2.45-1.34-4.36-3.25-5.74-5.73c-1.38-2.49-2.06-5.39-2.06-8.72c0-3.33,0.68-6.23,2.04-8.72c1.36-2.49,3.26-4.4,5.71-5.74
			c2.45-1.34,5.26-2.01,8.43-2.01c3.1,0,5.85,0.65,8.26,1.95c2.41,1.3,4.29,3.16,5.65,5.56c1.36,2.41,2.04,5.2,2.04,8.37
			C372.03,43.43,371.97,44.36,371.86,45.36z M361.99,40.37c0-1.84-0.57-3.27-1.72-4.3c-1.15-1.03-2.58-1.55-4.3-1.55
			c-1.68,0-3.09,0.51-4.22,1.52c-1.13,1.01-1.83,2.46-2.09,4.33L361.99,40.37L361.99,40.37z"/>
		<path class="st1" d="M391.36,28.29c1.72-3.12,4.12-5.54,7.2-7.29c3.08-1.74,6.57-2.61,10.47-2.61c4.78,0,8.87,1.26,12.27,3.79
			c3.4,2.52,5.68,5.96,6.83,10.32h-10.78c-0.84-1.64-1.99-2.9-3.44-3.76c-1.45-0.86-3.12-1.29-4.99-1.29
			c-3.02,0-5.47,1.04-7.34,3.13c-1.87,2.08-2.81,4.87-2.81,8.35c0,3.48,0.93,6.27,2.81,8.37c1.87,2.1,4.32,3.16,7.34,3.16
			c1.87,0,3.54-0.44,4.99-1.32c1.45-0.88,2.6-2.14,3.44-3.79h10.78c-1.15,4.36-3.42,7.79-6.83,10.3c-3.4,2.5-7.5,3.76-12.27,3.76
			c-3.9,0-7.39-0.87-10.47-2.61c-3.08-1.74-5.48-4.16-7.2-7.26c-1.72-3.1-2.58-6.63-2.58-10.61
			C388.78,34.95,389.64,31.41,391.36,28.29z"/>
		<path class="st1" d="M434.06,34.4c1.24-2.49,2.93-4.4,5.08-5.74c2.14-1.34,4.53-2.01,7.17-2.01c2.26,0,4.23,0.46,5.94,1.38
			c1.7,0.92,3.01,2.12,3.93,3.61v-4.53h9.81v32.01h-9.81v-4.53c-0.96,1.49-2.28,2.7-3.99,3.61c-1.7,0.92-3.68,1.38-5.94,1.38
			c-2.6,0-4.97-0.68-7.11-2.04c-2.14-1.36-3.83-3.29-5.08-5.79c-1.24-2.5-1.86-5.4-1.86-8.69C432.2,39.77,432.82,36.89,434.06,34.4z
			 M454.14,37.33c-1.36-1.41-3.01-2.12-4.96-2.12s-3.6,0.7-4.96,2.09c-1.36,1.4-2.04,3.32-2.04,5.77c0,2.45,0.68,4.39,2.04,5.82
			c1.36,1.43,3.01,2.15,4.96,2.15c1.95,0,3.6-0.71,4.96-2.12c1.36-1.41,2.04-3.34,2.04-5.79S455.49,38.74,454.14,37.33z"/>
		<path class="st1" d="M487.23,28.41c1.74-1.09,3.64-1.63,5.71-1.63v10.38h-2.7c-2.45,0-4.28,0.53-5.51,1.58
			c-1.22,1.05-1.83,2.9-1.83,5.54v14.86h-9.81V27.12h9.81v5.74C484.05,30.98,485.49,29.5,487.23,28.41z"/>
		<path class="st1" d="M527.64,45.36h-22.2c0.15,2.03,0.78,3.58,1.89,4.65c1.11,1.07,2.5,1.61,4.19,1.61c2.45,0,4.15-1.03,5.11-3.1
			h10.44c-0.54,2.1-1.5,4-2.9,5.68c-1.4,1.68-3.15,3-5.25,3.96c-2.1,0.96-4.46,1.43-7.06,1.43c-3.14,0-5.93-0.67-8.37-2.01
			c-2.45-1.34-4.36-3.25-5.74-5.73c-1.38-2.49-2.06-5.39-2.06-8.72c0-3.33,0.68-6.23,2.04-8.72c1.36-2.49,3.26-4.4,5.71-5.74
			c2.45-1.34,5.26-2.01,8.43-2.01c3.1,0,5.85,0.65,8.26,1.95c2.41,1.3,4.29,3.16,5.65,5.56c1.36,2.41,2.04,5.2,2.04,8.37
			C527.81,43.43,527.76,44.36,527.64,45.36z M517.78,40.37c0-1.84-0.57-3.27-1.72-4.3c-1.15-1.03-2.58-1.55-4.3-1.55
			c-1.68,0-3.09,0.51-4.22,1.52c-1.13,1.01-1.83,2.46-2.09,4.33L517.78,40.37L517.78,40.37z"/>
	</g>
</g>
</svg>
